<svg width="52" height="52" viewBox="0 0 52 52" fill="none" xmlns="http://www.w3.org/2000/svg">
<path d="M47.4149 38.5326L46.4694 38.0211L46.9786 38.2162L46.5124 37.9495C48.5494 34.389 49.6259 30.3315 49.6259 26.2151C49.6259 13.1876 39.0273 2.58905 25.9998 2.58905C12.9723 2.58905 2.37372 13.1876 2.37372 26.2151C2.37372 30.3346 3.45209 34.3922 5.49216 37.949L4.56035 38.4833C2.4272 34.764 1.2998 30.5218 1.2998 26.2151C1.2998 12.5956 12.3803 1.51514 25.9998 1.51514C39.6193 1.51514 50.6998 12.5956 50.6998 26.2151C50.6998 30.5181 49.5742 34.7603 47.4448 38.4828L47.4149 38.5326Z" fill="#4E61FF"/>
<path d="M37.5019 24.3667C37.0443 12.1549 31.992 2.58905 26 2.58905C20.008 2.58905 14.9557 12.1549 14.4982 24.3667L13.4248 24.3264C13.9122 11.3219 19.3185 1.51514 26 1.51514C32.6816 1.51514 38.0878 11.3219 38.5752 24.3264L37.5019 24.3667Z" fill="#4E61FF"/>
<path d="M25.4624 2.05176H26.5362V22.5044H25.4624V2.05176Z" fill="#4E61FF"/>
<path d="M5.07031 13.5991H46.9288V14.6729H5.07031V13.5991Z" fill="#4E61FF"/>
<path d="M43 25.6782H50.163V26.752H43V25.6782Z" fill="#4E61FF"/>
<path d="M1.83691 25.6782H8.99991V26.752H1.83691V25.6782Z" fill="#4E61FF"/>
<path d="M32.336 40.0363H31.2621V37.4213C31.2621 35.7454 29.9011 34.382 28.2284 34.382H23.7717C22.099 34.382 20.738 35.7454 20.738 37.4213V40.0363H19.6641V37.4213C19.6641 35.1534 21.5067 33.3081 23.7717 33.3081H28.2284C30.4934 33.3081 32.336 35.1534 32.336 37.4213V40.0363Z" fill="#4E61FF"/>
<path d="M11.5371 50.2832L13.0285 42.9388L14.0808 43.1525L12.5894 50.4969L11.5371 50.2832Z" fill="#4E61FF"/>
<path d="M15.4742 35.2942H14.1001C11.7205 35.2942 9.7915 33.3651 9.7915 30.9855V30.6772C9.7915 28.6555 11.4304 27.0166 13.4521 27.0166H13.6527C15.6744 27.0166 17.3133 28.6555 17.3133 30.6772V33.4551C17.3133 34.4708 16.4899 35.2942 15.4742 35.2942Z" fill="#4E61FF"/>
<path d="M37.9336 43.1235L38.9859 42.9098L40.4773 50.2542L39.4249 50.4679L37.9336 43.1235Z" fill="#4E61FF"/>
<path d="M36.5256 35.2942H37.8997C40.2793 35.2942 42.2083 33.3651 42.2083 30.9855V30.6772C42.2083 28.6555 40.5694 27.0166 38.5477 27.0166H38.3471C36.3254 27.0166 34.6865 28.6555 34.6865 30.6772V33.4551C34.6865 34.4708 35.5099 35.2942 36.5256 35.2942Z" fill="#4E61FF"/>
<path d="M26.0866 34.0057H25.9126C23.8651 34.0057 22.1992 32.34 22.1992 30.2923V28.3674C22.1992 26.32 23.8651 24.6543 25.9126 24.6543H26.0866C28.1341 24.6543 29.8 26.32 29.8 28.3674V30.2923C29.8 32.34 28.1341 34.0057 26.0866 34.0057ZM25.9126 25.7282C24.4572 25.7282 23.2731 26.9122 23.2731 28.3674V30.2923C23.2731 31.7477 24.4572 32.9318 25.9126 32.9318H26.0866C27.542 32.9318 28.7261 31.7477 28.7261 30.2923V28.3674C28.7261 26.9122 27.542 25.7282 26.0866 25.7282H25.9126Z" fill="#4E61FF"/>
<path d="M29.0498 38.2588H30.1236V40.5515H29.0498V38.2588Z" fill="#4E61FF"/>
<path d="M21.8755 38.2588H22.9493V40.5515H21.8755V38.2588Z" fill="#4E61FF"/>
<path d="M5.31074 48.8003L4.2793 48.5019L7.30177 38.0604C7.93574 35.8696 10.0421 34.4999 12.2977 34.7972C14.0302 35.0272 15.4581 36.1968 16.0242 37.8499L17.3254 41.6479H20.2957C21.9414 41.6479 23.2802 42.9866 23.2802 44.6323C23.2802 45.5117 22.5649 46.227 21.6855 46.227H17.1311C15.5837 46.227 14.176 45.3759 13.4576 44.0057L11.4705 40.2187L12.4217 39.7195L14.4088 43.5068C14.9411 44.5222 15.9843 45.153 17.1311 45.153H21.6855C21.9726 45.153 22.2063 44.9194 22.2063 44.6323C22.2063 43.5789 21.3492 42.7218 20.2957 42.7218H16.9418L16.434 42.3589L15.0082 38.1978C14.5748 36.9327 13.4823 36.0379 12.1564 35.8617C10.4283 35.6331 8.81852 36.6823 8.33321 38.3588L5.31074 48.8003Z" fill="#4E61FF"/>
<path d="M46.6887 48.8003L43.6662 38.3587C43.1811 36.6829 41.5747 35.6336 39.8427 35.8617C38.5171 36.0379 37.4246 36.9327 36.9915 38.1975L35.5654 42.3589L35.0576 42.7218H31.7037C30.6502 42.7218 29.7932 43.5789 29.7932 44.6323C29.7932 44.9194 30.0268 45.153 30.3139 45.153H34.8683C36.0151 45.153 37.0583 44.5222 37.5906 43.507L39.5777 39.7195L40.5289 40.2187L38.5418 44.006C37.8234 45.3759 36.4157 46.2269 34.8683 46.2269H30.3139C29.4345 46.2269 28.7192 45.5117 28.7192 44.6323C28.7192 42.9866 30.058 41.6479 31.7037 41.6479H34.674L35.9755 37.8496C36.5413 36.1968 37.9692 35.0272 39.7014 34.7972C41.9664 34.4978 44.0637 35.8696 44.6976 38.0604L47.7201 48.5019L46.6887 48.8003Z" fill="#4E61FF"/>
<path d="M20.7295 45.1533H32.0759V46.2271H20.7295V45.1533Z" fill="#4E61FF"/>
</svg>
