<svg width="52" height="52" viewBox="0 0 52 52" fill="none" xmlns="http://www.w3.org/2000/svg">
<path d="M28.5302 9.58039C28.2301 9.58039 27.9873 9.33732 27.9873 9.03753V6.84754C27.9873 6.54775 28.2301 6.30469 28.5302 6.30469C28.8302 6.30469 29.073 6.54775 29.073 6.84754V9.03753C29.073 9.33732 28.8302 9.58039 28.5302 9.58039Z" fill="#4E61FF"/>
<path d="M28.5302 22.6536C28.2301 22.6536 27.9873 22.4106 27.9873 22.1108V19.9208C27.9873 19.621 28.2301 19.3779 28.5302 19.3779C28.8302 19.3779 29.073 19.621 29.073 19.9208V22.1108C29.073 22.4106 28.8302 22.6536 28.5302 22.6536Z" fill="#4E61FF"/>
<path d="M28.5302 27.6586C21.2632 27.6586 15.3506 21.7463 15.3506 14.4792C15.3506 7.21212 21.2632 1.2998 28.5302 1.2998C35.7973 1.2998 41.7094 7.21212 41.7094 14.4792C41.7094 21.7463 35.7973 27.6586 28.5302 27.6586ZM28.5302 2.38552C21.8617 2.38552 16.4363 7.81064 16.4363 14.4792C16.4363 21.1477 21.8617 26.5729 28.5302 26.5729C35.1988 26.5729 40.6237 21.1477 40.6237 14.4792C40.6237 7.81064 35.1988 2.38552 28.5302 2.38552Z" fill="#4E61FF"/>
<path d="M34.9315 37.8234H23.0109C22.7109 37.8234 22.4681 37.5803 22.4681 37.2806C22.4681 36.9808 22.7109 36.7377 23.0109 36.7377H34.9315C35.1001 36.7377 35.2586 36.6722 35.3774 36.5532C35.4961 36.4347 35.5613 36.2765 35.5613 36.1079C35.5613 35.8373 35.5316 35.573 35.4728 35.3222C35.1102 33.7 33.6438 32.5266 31.9856 32.5266H27.6385C27.5361 32.5266 27.4354 32.4977 27.349 32.4431C23.6253 30.0962 16.7198 27.1163 12.3038 33.5216C12.2709 33.5696 12.2306 33.6118 12.184 33.647L8.47146 36.4496C8.23184 36.6301 7.89149 36.5826 7.71125 36.3435C7.53047 36.1042 7.57818 35.7638 7.81728 35.5831L11.4604 32.8327C15.095 27.6329 20.8877 27.1402 27.7943 31.4409H31.9856C34.183 31.4409 36.0517 32.9374 36.5309 35.08C36.6078 35.4063 36.647 35.754 36.647 36.1079C36.647 36.5665 36.4689 36.9975 36.145 37.3211C35.8205 37.645 35.3895 37.8234 34.9315 37.8234Z" fill="#4E61FF"/>
<path d="M29.3707 44.8443C28.4684 44.8443 27.5624 44.7613 26.6628 44.5924L17.2306 42.8191C16.7116 42.7224 16.1804 42.8284 15.7367 43.1142L14.6224 43.8341C14.3695 43.9966 14.0339 43.9242 13.8717 43.6727C13.709 43.4208 13.7811 43.085 14.0329 42.9223L15.1483 42.2015C15.8268 41.7652 16.6364 41.6057 17.4289 41.7517L26.8632 43.5253C30.6717 44.2399 34.6143 43.2955 37.6837 40.9345L49.2041 32.0797C49.4241 31.9077 49.5524 31.6487 49.5524 31.3717C49.5524 31.1504 49.4649 30.9335 49.3064 30.761C47.8793 29.2435 45.5207 29.0174 43.8227 30.2393L43.4696 30.4957L36.3181 35.6393C36.0753 35.8142 35.736 35.7588 35.5606 35.5155C35.3851 35.2722 35.4407 34.9329 35.6841 34.7577L43.1871 29.3593C45.3251 27.8198 48.2976 28.1034 50.1016 30.0217C50.4488 30.4 50.6381 30.8776 50.6381 31.3717C50.6381 31.9851 50.3577 32.5558 49.8694 32.9377L38.3453 41.7952C35.7567 43.7861 32.5913 44.844 29.3707 44.8443Z" fill="#4E61FF"/>
<path d="M34.7552 33.6019C34.5866 33.6019 34.4201 33.5235 34.3141 33.3761C34.1392 33.1328 34.1943 32.7938 34.4376 32.6185L38.0298 30.0331C39.6027 28.902 41.657 28.7244 43.3889 29.5682C43.6588 29.6994 43.7706 30.0243 43.6397 30.2939C43.5082 30.563 43.1838 30.6761 42.9139 30.5441C41.5404 29.8756 39.9123 30.0172 38.6633 30.9144L35.0717 33.4996C34.9757 33.5688 34.8649 33.6019 34.7552 33.6019Z" fill="#4E61FF"/>
<path d="M1.36572 39.5376L7.08082 34.7402L16.4513 45.9031L10.7362 50.7005L1.36572 39.5376Z" fill="#4E61FF"/>
</svg>
