<svg width="1031" height="538" viewBox="0 0 1031 538" fill="none" xmlns="http://www.w3.org/2000/svg">
<path d="M4.79122 433.049L4.62109 432.629L151.739 388.633L178.817 302.117L178.91 302.071L279.12 252.852L279.247 252.914L428.122 325.324L576.721 340.567L581.434 277.921L581.783 278.072L735.453 344.5V213.501L735.813 213.632L900.87 273.919L943.292 121.989L943.62 122.41L998.867 193.229L1015.7 161.885L1015.81 161.859L1280.07 103.606L1280.15 103.639L1472.37 180.026L1314.28 257.212L1206.24 393.078L1206.09 393.07L900.658 376.154L900.816 375.86L998.613 193.702L943.519 123.078L901.231 274.533L900.95 274.43L735.97 214.172V345.221L735.596 345.059L581.9 278.62L577.201 341.065L576.93 341.037L427.959 325.754L427.914 325.732L279.121 253.363L179.26 302.411L152.167 388.975L152.038 389.014L4.79122 433.049ZM901.443 375.753L1205.98 392.619L1313.26 257.712L1270.76 278.463L1270.5 278.077L1313.92 256.877L1351.3 209.877L1174.47 133.32L1105.02 330.096L1104.71 329.707L998.951 194.134L901.443 375.753ZM999.204 193.662L1104.84 329.07L1174.16 132.685L1174.43 132.804L1352.06 209.708L1314.95 256.376L1471.24 180.067L1280.02 104.076L1016.06 162.263L999.204 193.662Z" fill="#999999"/>
<path d="M412.553 407.267L411.287 407.178L151.932 389.026L151.974 388.583L410.064 406.647L177.711 301.916L428.009 325.312L581.58 278.061L737.155 212.985L577.542 340.655L900.793 375.701V273.922L901.129 274.014L1104.45 329.22L1015.33 161.57L1016 161.877L1187.14 239.935L1174.08 133.213L943.524 122.76L735.914 344.999L735.511 344.72L943.287 122.304L943.419 122.311L1174.55 132.79L1174.57 132.978L1187.69 240.186L1270.39 277.909L1279.83 103.076L1351.94 209.772L1370.68 393.069H1205.87L1205.85 392.87L1187.2 240.468L1016.43 162.576L1105.4 329.945L1104.85 329.794L901.309 274.528V376.205L901.018 376.173L576.379 340.976L576.784 340.652L734.268 214.685L581.78 278.468L428.071 325.764L428.012 325.758L180.367 302.61L412.553 407.267ZM1206.34 392.626H1370.12L1351.43 209.861L1280.26 104.605L1270.87 278.63L1187.75 240.72L1206.34 392.626Z" fill="#999999"/>
<path d="M411.101 407.089L355.511 342.39L151.256 389.194L279.13 252.744L279.329 252.976L355.717 341.882L427.974 325.324L428.108 325.754L356.047 342.266L411.517 406.825L411.101 407.089ZM279.112 253.472L152.65 388.415L355.18 342.005L279.112 253.472Z" fill="#999999"/>
<path d="M410.946 407.443L427.786 325.5L428.296 325.578L411.671 406.471L627.627 277.91L581.671 278.492L581.664 278.048L628.39 277.457L735.607 213.629L735.658 213.619L814.493 199.054L943.453 122.235L987.114 167.161L1015.87 161.848L1015.92 161.855L1351.67 209.565L1472.24 179.706L1472.04 180.131L1370.47 393.296L1270.68 278.696L1206.17 393.255L1205.91 392.991L986.917 167.652L814.702 199.469L684.985 276.739L903.389 273.973L575.684 341.307L683.295 277.204L628.555 277.898L410.946 407.443ZM987.488 167.546L1206.05 392.442L1270.58 277.844L1270.84 278.137L1370.33 392.402L1471.36 180.388L1351.7 210.02L1351.64 210.011L1015.88 162.3L987.488 167.546ZM684.222 277.193L578.239 340.325L898.714 274.477L684.222 277.193ZM735.817 214.044L629.317 277.444L684.057 276.751L813.386 199.712L735.817 214.044ZM943.358 122.831L815.807 198.811L986.542 167.266L943.358 122.831Z" fill="#999999"/>
<path d="M1359.37 503.018L1358.99 502.745L1206.62 393.51L1243.76 493.18L1243.23 492.983L1025.79 411.156L1014.86 352.105L1163.07 265.124L1020.7 284.905L901.028 376.269L735.518 213.983L696.154 166.476L581.862 278.417L581.473 278.124L696.196 165.761L735.922 213.708L901.074 375.64L1020.47 284.487L1020.54 284.477L1165.27 264.367L1164.32 264.929L1015.43 352.313L1026.26 410.847L1242.92 492.378L1205.59 392.189L1358.94 502.132L1370.18 392.417L1370.56 392.675L1450.47 447.681L1555.25 432.695L1174.14 133.167L1062.44 34.2604L1062.81 33.9512L1174.5 132.848L1556.38 432.983L1450.33 448.151L1450.24 448.089L1370.61 393.282L1359.37 503.018Z" fill="#999999"/>
<path d="M1446.35 532.181L1446.38 531.592L1450.14 447.95L1417.11 368.282L1370.54 393.037L1243.3 493.11L1243.13 492.91L1135.03 365.454L1018 319.948L1015.39 352.386L1015.21 352.425L901.998 375.986L1026.1 410.79L1025.94 411.213L900.105 375.922L900.991 375.738L1014.9 352.031L1017.5 319.752L900.627 274.304L900.858 274.079L1016.12 161.506L1016.14 162.066L1020.84 284.688L1018.04 319.474L1134.41 364.725L1104.6 329.578L1104.72 329.446L1163.92 264.661L1174.08 132.752L1269.74 143.101L1279.87 103.486L1280.18 103.652L1353.77 143.042L1400.12 67.9186L1483.58 120.102L1506.47 6.14941L1506.72 7.46908L1533.59 151.916L1483.95 120.882L1472.07 180.02L1533.56 306.396L1533.37 306.496L1427.25 362.893L1556.23 432.794L1556.01 432.991L1446.35 532.181ZM1417.56 368.043L1450.66 447.881L1450.66 447.924L1446.92 531.021L1555.41 432.882L1426.76 363.154L1417.56 368.043ZM1135.98 365.825L1243.38 492.447L1370.23 392.685L1416.94 367.857L1411.58 354.923L1270.29 278.348L1270.4 278.166L1348.22 152.041L1270.14 143.594L1206.29 393.164L1206 393.051L1135.98 365.825ZM1135.37 365.097L1205.92 392.533L1269.62 143.537L1174.55 133.252L1164.42 264.828L1164.37 264.882L1105.25 329.588L1135.37 365.097ZM1412.28 355.306L1417.39 367.617L1426.28 362.892L1412.28 355.306ZM1412 354.629L1426.77 362.632L1532.91 306.218L1471.53 180.073L1471.55 180.009L1483.48 120.591L1400.29 68.5793L1354.21 143.278L1376.24 155.073L1348.77 152.1L1270.97 278.192L1411.29 354.244L1351.44 209.867L1351.92 209.717L1412 354.629ZM901.476 274.147L1017.54 319.279L1020.33 284.68L1015.64 162.641L901.476 274.147ZM1349.03 151.68L1373.97 154.379L1353.97 143.671L1349.03 151.68ZM1270.25 143.157L1348.48 151.621L1353.53 143.436L1280.22 104.196L1270.25 143.157ZM1484.05 120.395L1532.88 150.925L1506.45 8.86028L1484.05 120.395Z" fill="#999999"/>
<path d="M735.712 217.88C738.311 217.88 740.418 216.069 740.418 213.836C740.418 211.602 738.311 209.792 735.712 209.792C733.113 209.792 731.006 211.602 731.006 213.836C731.006 216.069 733.113 217.88 735.712 217.88Z" fill="#666666"/>
<path d="M580.279 343.675C582.116 342.096 582.116 339.535 580.279 337.956C578.441 336.377 575.461 336.377 573.623 337.956C571.786 339.535 571.786 342.096 573.623 343.675C575.461 345.254 578.441 345.254 580.279 343.675Z" fill="#666666"/>
<path d="M411.308 411.001C413.907 411.001 416.014 409.19 416.014 406.957C416.014 404.724 413.907 402.913 411.308 402.913C408.709 402.913 406.602 404.724 406.602 406.957C406.602 409.19 408.709 411.001 411.308 411.001Z" fill="#666666"/>
<path d="M179.039 306.308C181.638 306.308 183.745 304.497 183.745 302.264C183.745 300.03 181.638 298.22 179.039 298.22C176.44 298.22 174.333 300.03 174.333 302.264C174.333 304.497 176.44 306.308 179.039 306.308Z" fill="#666666"/>
<path d="M279.121 257.151C281.72 257.151 283.826 255.341 283.826 253.107C283.826 250.874 281.72 249.063 279.121 249.063C276.521 249.063 274.415 250.874 274.415 253.107C274.415 255.341 276.521 257.151 279.121 257.151Z" fill="#666666"/>
<path d="M4.70599 436.882C7.30503 436.882 9.41197 435.071 9.41197 432.838C9.41197 430.604 7.30503 428.794 4.70599 428.794C2.10695 428.794 0 430.604 0 432.838C0 435.071 2.10695 436.882 4.70599 436.882Z" fill="#666666"/>
<path d="M432.673 326.473C433.268 324.299 431.699 322.122 429.169 321.611C426.639 321.1 424.106 322.448 423.511 324.622C422.916 326.796 424.485 328.973 427.015 329.484C429.545 329.995 432.078 328.647 432.673 326.473Z" fill="#666666"/>
<path d="M1015.88 166.117C1018.48 166.117 1020.58 164.307 1020.58 162.073C1020.58 159.84 1018.48 158.029 1015.88 158.029C1013.28 158.029 1011.17 159.84 1011.17 162.073C1011.17 164.307 1013.28 166.117 1015.88 166.117Z" fill="#666666"/>
<path d="M735.712 348.904C738.311 348.904 740.418 347.094 740.418 344.86C740.418 342.627 738.311 340.816 735.712 340.816C733.113 340.816 731.006 342.627 731.006 344.86C731.006 347.094 733.113 348.904 735.712 348.904Z" fill="#666666"/>
<path d="M581.667 284.696C585.797 284.696 589.145 281.819 589.145 278.27C589.145 274.722 585.797 271.845 581.667 271.845C577.537 271.845 574.189 274.722 574.189 278.27C574.189 281.819 577.537 284.696 581.667 284.696Z" fill="#666666"/>
<path d="M901.051 382.379C905.18 382.379 908.528 379.503 908.528 375.954C908.528 372.405 905.18 369.528 901.051 369.528C896.921 369.528 893.573 372.405 893.573 375.954C893.573 379.503 896.921 382.379 901.051 382.379Z" fill="#666666"/>
<path d="M946.296 128.464C950.112 127.106 951.924 123.347 950.343 120.068C948.763 116.79 944.389 115.233 940.573 116.591C936.758 117.949 934.946 121.708 936.526 124.986C938.107 128.265 942.481 129.822 946.296 128.464Z" fill="#666666"/>
<path d="M159.223 390.303C160.178 386.85 157.695 383.386 153.677 382.566C149.659 381.745 145.628 383.879 144.673 387.332C143.718 390.784 146.201 394.248 150.219 395.069C154.237 395.889 158.268 393.755 159.223 390.303Z" fill="#666666"/>
<path d="M901.051 278.269C903.65 278.269 905.757 276.459 905.757 274.226C905.757 271.992 903.65 270.182 901.051 270.182C898.452 270.182 896.345 271.992 896.345 274.226C896.345 276.459 898.452 278.269 901.051 278.269Z" fill="#666666"/>
<path d="M1024.42 288.002C1026.54 286.177 1026.54 283.218 1024.42 281.393C1022.29 279.568 1018.85 279.568 1016.73 281.393C1014.6 283.218 1014.6 286.177 1016.73 288.002C1018.85 289.827 1022.29 289.826 1024.42 288.002Z" fill="#666666"/>
<path d="M1029.85 414.306C1031.98 412.481 1031.98 409.523 1029.85 407.698C1027.73 405.873 1024.29 405.873 1022.16 407.698C1020.04 409.523 1020.04 412.481 1022.16 414.306C1024.29 416.131 1027.73 416.131 1029.85 414.306Z" fill="#666666"/>
<path d="M698.282 170.433C701.057 169.446 702.374 166.712 701.225 164.328C700.076 161.943 696.894 160.811 694.12 161.799C691.345 162.786 690.027 165.52 691.176 167.904C692.326 170.289 695.507 171.421 698.282 170.433Z" fill="#666666"/>
<path d="M1018.9 353.045C1019.39 351.269 1018.11 349.489 1016.04 349.07C1013.97 348.65 1011.9 349.75 1011.41 351.526C1010.93 353.302 1012.21 355.082 1014.27 355.502C1016.34 355.921 1018.41 354.821 1018.9 353.045Z" fill="#666666"/>
</svg>
