<svg width="52" height="52" viewBox="0 0 52 52" fill="none" xmlns="http://www.w3.org/2000/svg">
<path d="M46.3238 13.5048C44.627 12.8605 42.9947 12.3558 41.4106 11.9745V3.98459L41.2549 3.60334C40.6965 3.05029 40.2991 2.65295 39.8534 2.20726L39.1071 1.45551L38.7258 1.2998H13.2741L12.8929 1.45551L12.1465 2.20726C11.7008 2.65295 11.3035 3.05029 10.7451 3.60334L10.5893 3.98459V11.9745C9.00529 12.3558 7.37295 12.8605 5.67618 13.5048L5.32715 14.0096V36.0409L6.0574 36.5403C7.61996 35.9443 9.12881 35.4717 10.5893 35.1119V48.015L10.7451 48.3963C11.3035 48.9493 11.7008 49.3467 12.1465 49.7924L12.8929 50.5441L13.2741 50.6998H38.7258L39.1071 50.5441L39.8534 49.7924C40.2991 49.3467 40.6965 48.9493 41.2549 48.3963L41.4106 48.015V35.1119C42.8711 35.4717 44.38 35.9443 45.9425 36.5403L46.6728 36.0409V14.0096L46.3238 13.5048ZM11.6632 4.2101C12.1411 3.73223 12.5009 3.37245 12.9036 2.96436L13.4943 2.37372H19.2451L21.8869 5.35382L22.2896 5.5364H29.7103L30.113 5.35382L32.7549 2.37372H38.5057L39.0964 2.96436C39.4991 3.37245 39.8588 3.73223 40.3367 4.2101V11.7329C34.8061 10.5999 30.0057 11.1583 26 13.3975C21.9943 11.1637 17.1939 10.5999 11.6632 11.7329V4.2101ZM6.40106 35.2677V14.3801C14.0312 11.5449 20.4425 11.5234 25.463 14.321V35.1334C20.3243 32.5023 13.9238 32.5453 6.40106 35.2677ZM29.5009 47.1988H22.499V45.051H29.5009V47.1988ZM40.3367 41.5501H11.6632V34.8596C17.1402 33.6998 21.86 34.2475 25.7315 36.5027L26 36.347L26.2685 36.5027C30.1399 34.2475 34.8544 33.6998 40.3367 34.8596V41.5501ZM45.5989 35.2677C41.7758 33.8823 38.2426 33.195 35.0155 33.195C31.8957 33.195 29.0606 33.8394 26.5369 35.1334V14.321C31.5575 11.5234 37.9687 11.5449 45.5989 14.3801V35.2677Z" fill="#4E61FF"/>
<path d="M29.3657 17.2848L29.6803 18.3115C33.3394 17.1901 37.6382 17.3118 42.4598 18.673L42.7514 17.6395C37.7289 16.2211 33.2246 16.1018 29.3657 17.2848Z" fill="#4E61FF"/>
<path d="M29.3657 21.8041L29.6803 22.8308C33.3499 21.7068 37.6492 21.8279 42.4593 23.1921L42.7519 22.1591C37.7405 20.7372 33.2361 20.6182 29.3657 21.8041Z" fill="#4E61FF"/>
<path d="M38.9248 26.9152C40.0627 27.1011 41.2514 27.3691 42.4596 27.7115L42.7522 26.6785C41.5052 26.3245 40.2756 26.0477 39.0978 25.8555L38.9248 26.9152Z" fill="#4E61FF"/>
<path d="M29.3657 26.3234L29.6803 27.3501C31.6279 26.7531 33.7647 26.503 36.0383 26.6084L36.0876 25.5355C33.6939 25.4254 31.4317 25.6904 29.3657 26.3234Z" fill="#4E61FF"/>
<path d="M22.6339 17.2848C21.937 17.0711 21.2113 16.8975 20.4756 16.769L20.291 17.8267C20.9821 17.9478 21.6649 18.1109 22.3193 18.3115L22.6339 17.2848Z" fill="#4E61FF"/>
<path d="M17.2442 17.5497L17.2578 16.4758C14.7864 16.4499 12.0917 16.8371 9.24854 17.6394L9.54009 18.6729C12.2836 17.8985 14.8855 17.5217 17.2442 17.5497Z" fill="#4E61FF"/>
<path d="M14.8633 21.087L14.9587 22.1567C17.6147 21.9205 20.0897 22.1473 22.3193 22.8306L22.6339 21.8038C20.2711 21.0797 17.6577 20.8382 14.8633 21.087Z" fill="#4E61FF"/>
<path d="M12.5804 22.4814L12.3885 21.4248C11.3723 21.6094 10.3157 21.8564 9.24805 22.1592L9.54065 23.1922C10.5758 22.8988 11.5983 22.6597 12.5804 22.4814Z" fill="#4E61FF"/>
<path d="M22.6342 26.3235C18.7638 25.1379 14.26 25.2567 9.24805 26.6785L9.54065 27.7115C14.3502 26.3474 18.6495 26.2262 22.3196 27.3502L22.6342 26.3235Z" fill="#4E61FF"/>
</svg>
