<svg width="52" height="52" viewBox="0 0 52 52" fill="none" xmlns="http://www.w3.org/2000/svg">
<path d="M38.2218 45.6323H6.4409C5.39253 45.6323 4.46503 45.0028 4.0778 44.0283C3.69108 43.0557 3.93281 41.963 4.69354 41.2445L7.37048 38.7178V22.1166C7.37048 13.8658 13.9527 7.03175 22.0432 6.88235C25.3247 6.81829 28.4385 7.79559 31.0742 9.69858C31.4311 9.95613 31.5115 10.4544 31.2539 10.811C30.9961 11.1674 30.4981 11.2478 30.1415 10.9908C27.7877 9.29111 25.0036 8.42949 22.0728 8.4754C14.8444 8.60923 8.96404 14.7285 8.96404 22.1166V39.0614C8.96404 39.2808 8.87352 39.4904 8.71427 39.6409L5.78755 42.4031C5.35493 42.8116 5.50277 43.2998 5.55853 43.4396C5.61429 43.5801 5.84306 44.0387 6.4409 44.0387H38.2218C38.8199 44.0387 39.0487 43.5801 39.1045 43.4396C39.1602 43.2998 39.3081 42.8114 38.8755 42.4029L35.9487 39.6409C35.7892 39.4904 35.6987 39.2808 35.6987 39.0614V31.6349C35.6987 31.1948 36.0553 30.8381 36.4955 30.8381C36.9356 30.8381 37.2923 31.1948 37.2923 31.6349V38.7178L39.9692 41.2443C40.7302 41.963 40.9719 43.0557 40.5852 44.0283C40.198 45.0028 39.2702 45.6323 38.2218 45.6323Z" fill="#4E61FF"/>
<path d="M36.4958 39.8582H29.6542C29.2141 39.8582 28.8574 39.5016 28.8574 39.0614C28.8574 38.6213 29.2141 38.2646 29.6542 38.2646H36.4958C36.936 38.2646 37.2926 38.6213 37.2926 39.0614C37.2926 39.5016 36.936 39.8582 36.4958 39.8582Z" fill="#4E61FF"/>
<path d="M25.566 39.8582H22.3314C21.8913 39.8582 21.5347 39.5016 21.5347 39.0614C21.5347 38.6213 21.8913 38.2646 22.3314 38.2646H25.566C26.0062 38.2646 26.3628 38.6213 26.3628 39.0614C26.3628 39.5016 26.0062 39.8582 25.566 39.8582Z" fill="#4E61FF"/>
<path d="M12.3893 19.2598C12.3014 19.2598 12.2119 19.245 12.1243 19.2142C11.7093 19.0676 11.4914 18.6127 11.6379 18.1977C12.857 14.7432 15.6257 12.0434 19.044 10.9758C19.4647 10.8449 19.9108 11.0786 20.042 11.4987C20.1732 11.9189 19.939 12.3655 19.5191 12.4968C16.5779 13.4155 14.1935 15.7449 13.1407 18.7278C13.0253 19.0552 12.7177 19.2598 12.3893 19.2598Z" fill="#4E61FF"/>
<path d="M11.7646 23.9483C11.3244 23.9483 10.9678 23.5917 10.9678 23.1515V22.1182C10.9678 22.0264 10.9688 21.9354 10.9709 21.8441C10.9802 21.4042 11.3506 21.0429 11.7843 21.0644C12.2242 21.0737 12.5733 21.4379 12.5639 21.8778L12.5613 23.1515C12.5613 23.5917 12.2047 23.9483 11.7646 23.9483Z" fill="#4E61FF"/>
<path d="M22.4565 50.7H22.2077C19.2662 50.7 16.873 48.3068 16.873 45.3653V44.8383C16.873 44.3981 17.2297 44.0415 17.6698 44.0415H26.9944C27.4345 44.0415 27.7912 44.3981 27.7912 44.8383V45.3653C27.7912 48.3068 25.398 50.7 22.4565 50.7ZM18.4762 45.6351C18.615 47.5725 20.2355 49.1065 22.2077 49.1065H22.4565C24.4287 49.1065 26.0492 47.5725 26.188 45.6351H18.4762Z" fill="#4E61FF"/>
<path d="M38.169 7.67383C31.5185 7.67383 26.127 13.0654 26.127 19.7105C26.127 26.361 31.5185 31.7525 38.169 31.7525C44.8141 31.7525 50.2057 26.361 50.2057 19.7105C50.2057 13.0654 44.8141 7.67383 38.169 7.67383ZM45.2656 18.7225L42.2166 21.6919L42.9337 25.8882C43.0293 26.4513 42.4397 26.8815 41.9351 26.6159L38.169 24.6346L34.3975 26.6159C33.8929 26.8815 33.3033 26.4513 33.3989 25.8882L34.1213 21.6919L31.0723 18.7225C30.6633 18.3241 30.8864 17.6283 31.4495 17.5433L35.6671 16.9324L37.5475 13.1132C37.8025 12.6033 38.5302 12.6033 38.7851 13.1132L40.6708 16.9324L44.8832 17.5433C45.4462 17.6283 45.6746 18.3241 45.2656 18.7225Z" fill="#4E61FF"/>
<path d="M13.7051 6.00906C13.6659 6.00906 13.6262 6.0062 13.5866 6.00024C13.1513 5.9354 12.851 5.53 12.9161 5.09478L13.3809 1.97873C13.4457 1.54351 13.8535 1.24498 14.2863 1.30826C14.7216 1.37311 15.0219 1.7785 14.9568 2.21372L14.492 5.32977C14.4331 5.72531 14.0931 6.00906 13.7051 6.00906Z" fill="#4E61FF"/>
<path d="M7.6927 7.99426C7.48883 7.99426 7.28497 7.91645 7.12935 7.76109L4.90215 5.53389C4.59117 5.22265 4.59117 4.71818 4.90241 4.40694C5.21365 4.09621 5.71812 4.09595 6.02937 4.4072L8.25604 6.63387C8.56729 6.94512 8.56729 7.44959 8.2563 7.76083C8.10068 7.91645 7.89656 7.99426 7.6927 7.99426Z" fill="#4E61FF"/>
<path d="M2.59023 14.4711C2.20222 14.4711 1.86218 14.1874 1.80331 13.7921C1.73821 13.3569 2.0383 12.9512 2.47352 12.8864L5.58983 12.4214C6.0222 12.3568 6.43044 12.6563 6.49528 13.0918C6.56039 13.527 6.26004 13.9324 5.82482 13.9973L2.70902 14.4623C2.66908 14.4683 2.6294 14.4711 2.59023 14.4711Z" fill="#4E61FF"/>
</svg>
