<svg width="32" height="32" viewBox="0 0 32 32" fill="none" xmlns="http://www.w3.org/2000/svg">
<path d="M21.8208 8.55371C19.3008 8.55371 18.2358 9.75621 16.4808 9.75621C14.6814 9.75621 13.3089 8.56246 11.1252 8.56246C8.9877 8.56246 6.70833 9.86746 5.26083 12.0906C3.22833 15.2256 3.57333 21.13 6.8652 26.16C8.0427 27.9606 9.6152 29.98 11.6777 30.0018H11.7152C13.5077 30.0018 14.0402 28.8281 16.5071 28.8143H16.5446C18.9746 28.8143 19.4621 29.995 21.2471 29.995H21.2846C23.3471 29.9731 25.0039 27.7356 26.1814 25.9418C27.0289 24.6518 27.3439 24.0043 27.9939 22.545C23.2321 20.7375 22.4671 13.9868 27.1764 11.3987C25.7389 9.59871 23.7189 8.55621 21.8146 8.55621L21.8208 8.55371Z" fill="#4E61FF"/>
<path d="M21.2654 2C19.7654 2.10188 18.0154 3.05688 16.9904 4.30375C16.0604 5.43375 15.2954 7.11 15.5954 8.73563H15.7154C17.3129 8.73563 18.9479 7.77375 19.9029 6.54125C20.8229 5.36813 21.5204 3.70563 21.2654 2Z" fill="#4E61FF"/>
</svg>
