<svg width="80" height="80" viewBox="0 0 80 80" fill="none" xmlns="http://www.w3.org/2000/svg">
<path d="M46.2373 17.6215V22.0658C46.2373 23.3628 45.1882 24.4119 43.8995 24.4119H31.0704L25.5025 29.9715V24.4119H23.619C22.3221 24.4119 21.2812 23.3628 21.2812 22.0658V11.9545C21.2812 10.6658 22.3221 9.6167 23.619 9.6167H33.7634V15.2754C33.7634 16.5724 34.8125 17.6215 36.1013 17.6215H46.2373Z" fill="#4E61FF"/>
<path d="M54.498 24.0071C54.2835 24.0071 54.0721 23.9232 53.914 23.7655L48.588 18.4475H36.1015C34.3565 18.4475 32.9375 17.0245 32.9375 15.2751V5.16398C32.9375 3.41943 34.3565 2 36.1015 2H56.3818C58.1267 2 59.5457 3.41943 59.5457 5.16398V15.2751C59.5457 17.0245 58.1267 18.4475 56.3818 18.4475H55.3241V23.181C55.3241 23.515 55.1233 23.8163 54.8143 23.9441C54.7118 23.9865 54.6045 24.0071 54.498 24.0071ZM36.1015 3.65217C35.2681 3.65217 34.5897 4.33023 34.5897 5.16398V15.2751C34.5897 16.1133 35.2681 16.7953 36.1015 16.7953H48.93C49.1486 16.7953 49.3592 16.8821 49.5141 17.037L53.672 21.1888V17.6214C53.672 17.1652 54.0414 16.7953 54.498 16.7953H56.3818C57.2151 16.7953 57.8936 16.1133 57.8936 15.2751V5.16398C57.8936 4.33023 57.2151 3.65217 56.3818 3.65217H36.1015Z" fill="#4E61FF"/>
<path d="M47.3538 8.61751H38.3193C37.8626 8.61751 37.4932 8.24762 37.4932 7.79142C37.4932 7.33522 37.8626 6.96533 38.3193 6.96533H47.3538C47.8104 6.96533 48.1799 7.33522 48.1799 7.79142C48.1799 8.24762 47.8104 8.61751 47.3538 8.61751Z" fill="#4E61FF"/>
<path d="M54.1598 8.61751H50.995C50.5384 8.61751 50.1689 8.24762 50.1689 7.79142C50.1689 7.33522 50.5384 6.96533 50.995 6.96533H54.1598C54.6164 6.96533 54.9859 7.33522 54.9859 7.79142C54.9859 8.24762 54.6164 8.61751 54.1598 8.61751Z" fill="#4E61FF"/>
<path d="M54.1596 13.4808H45.1259C44.6693 13.4808 44.2998 13.1109 44.2998 12.6547C44.2998 12.1985 44.6693 11.8286 45.1259 11.8286H54.1596C54.6162 11.8286 54.9857 12.1985 54.9857 12.6547C54.9857 13.1109 54.6162 13.4808 54.1596 13.4808Z" fill="#4E61FF"/>
<path d="M41.4848 13.4813H38.3193C37.8626 13.4813 37.4932 13.1114 37.4932 12.6552C37.4932 12.199 37.8626 11.8291 38.3193 11.8291H41.4848C41.9414 11.8291 42.3109 12.199 42.3109 12.6552C42.3109 13.1114 41.9414 13.4813 41.4848 13.4813Z" fill="#4E61FF"/>
<path d="M67.068 71.7217H62.2518C60.2035 71.7217 58.528 70.1828 58.3553 68.1422L57.6018 56.6557H56.9282C55.9513 56.6557 55.0437 56.2648 54.3725 55.5553C53.7013 54.8458 53.3617 53.918 53.4157 52.9431L53.9127 43.9598C54.1378 39.877 57.5188 36.6787 61.608 36.6787H67.7117C71.8002 36.6787 75.1804 39.8774 75.4063 43.9598L75.9032 52.9431C75.9573 53.9184 75.6176 54.8462 74.9464 55.5557C74.2752 56.2648 73.3677 56.6557 72.3915 56.6557H71.7179L70.9653 68.1265C70.791 70.1828 69.1154 71.7217 67.068 71.7217ZM61.608 38.3309C58.3949 38.3309 55.7391 40.8434 55.5616 44.051L55.0647 53.0343C55.0365 53.5514 55.2164 54.0435 55.5729 54.4198C55.9287 54.7962 56.4103 55.0035 56.9282 55.0035H58.3755C58.8111 55.0035 59.1717 55.3411 59.2 55.7755L60.0027 68.0184C60.0995 69.1615 61.0885 70.0695 62.2518 70.0695H67.068C68.2506 70.0695 69.2179 69.1809 69.3179 68.0027L70.1198 55.7755C70.1488 55.3411 70.5086 55.0035 70.9443 55.0035H72.3915C72.9095 55.0035 73.3903 54.7962 73.746 54.4202C74.1026 54.0439 74.2825 53.5518 74.2543 53.0343L73.7573 44.051C73.5798 40.8434 70.9241 38.3309 67.7117 38.3309H61.608Z" fill="#4E61FF"/>
<path d="M64.6601 71.722C64.2035 71.722 63.834 71.3521 63.834 70.8959V56.2792C63.834 55.823 64.2035 55.4531 64.6601 55.4531C65.1167 55.4531 65.4862 55.823 65.4862 56.2792V70.8959C65.4862 71.3521 65.1167 71.722 64.6601 71.722Z" fill="#4E61FF"/>
<path d="M64.6602 38.248C61.3938 38.248 58.5283 34.769 58.5283 30.8027C58.5283 27.1959 61.1074 24.5776 64.6602 24.5776C68.2131 24.5776 70.7922 27.1959 70.7922 30.8027C70.7922 34.769 67.9267 38.248 64.6602 38.248ZM64.6602 26.2298C62.0223 26.2298 60.1805 28.1103 60.1805 30.8027C60.1805 33.8348 62.3159 36.5958 64.6602 36.5958C67.0046 36.5958 69.14 33.8348 69.14 30.8027C69.14 28.1103 67.2982 26.2298 64.6602 26.2298Z" fill="#4E61FF"/>
<path d="M58.3761 56.6558C58.3697 56.6558 58.3624 56.6558 58.356 56.6554C57.8994 56.6441 57.5388 56.2654 57.5501 55.8092L57.8074 45.4605C57.8187 45.0055 58.2277 44.6263 58.6537 44.6554C59.1103 44.6667 59.4709 45.0454 59.4596 45.5016L59.2022 55.8503C59.1909 56.2992 58.8231 56.6558 58.3761 56.6558Z" fill="#4E61FF"/>
<path d="M70.9449 56.6556C70.4979 56.6556 70.1301 56.2991 70.1188 55.8501L69.8606 45.5014C69.8493 45.0452 70.2099 44.6665 70.6657 44.6552C70.673 44.6548 70.6802 44.6548 70.6867 44.6548C71.1336 44.6548 71.5015 45.0114 71.5128 45.4603L71.7709 55.809C71.7822 56.2652 71.4216 56.6439 70.9658 56.6552C70.9586 56.6556 70.9513 56.6556 70.9449 56.6556Z" fill="#4E61FF"/>
<path d="M42.4078 78H37.5916C35.5434 78 33.8678 76.4612 33.6952 74.4205L32.9417 62.934H32.2681C31.2919 62.934 30.3844 62.5435 29.7132 61.8344C29.042 61.1249 28.7015 60.1972 28.7556 59.2222L29.2533 50.2381C29.4784 46.1553 32.8586 42.957 36.9479 42.957H43.0516C47.1408 42.957 50.521 46.1553 50.7461 50.2381L51.2439 59.2218C51.2979 60.1972 50.9575 61.1249 50.2863 61.8344C49.6151 62.5435 48.7075 62.934 47.7314 62.934H47.0578L46.3059 74.4048C46.1316 76.4612 44.4561 78 42.4078 78ZM36.9479 44.6092C33.7355 44.6092 31.0798 47.1218 30.9023 50.3293L30.4045 59.313C30.3763 59.8301 30.557 60.3222 30.9136 60.6985C31.2693 61.0749 31.7501 61.2818 32.2681 61.2818H33.7153C34.151 61.2818 34.5116 61.6194 34.5398 62.0538L35.3425 74.2967C35.4393 75.4398 36.4283 76.3478 37.5916 76.3478H42.4078C43.5711 76.3478 44.5601 75.4398 44.6586 74.281L45.4596 62.0538C45.4879 61.6194 45.8485 61.2818 46.2841 61.2818H47.7314C48.2493 61.2818 48.7301 61.0749 49.0859 60.6985C49.4424 60.3222 49.6231 59.8301 49.5949 59.3126L49.0972 50.3293C48.9197 47.1218 46.2639 44.6092 43.0516 44.6092H36.9479Z" fill="#4E61FF"/>
<path d="M39.9999 78.0003C39.5433 78.0003 39.1738 77.6304 39.1738 77.1742V62.5575C39.1738 62.1013 39.5433 61.7314 39.9999 61.7314C40.4565 61.7314 40.826 62.1013 40.826 62.5575V77.1742C40.826 77.6304 40.4565 78.0003 39.9999 78.0003Z" fill="#4E61FF"/>
<path d="M39.9991 44.5263C36.7327 44.5263 33.8672 41.0473 33.8672 37.0811C33.8672 33.4742 36.4463 30.856 39.9991 30.856C43.5519 30.856 46.131 33.4742 46.131 37.0811C46.131 41.0473 43.2655 44.5263 39.9991 44.5263ZM39.9991 32.5081C37.3611 32.5081 35.5194 34.3886 35.5194 37.0811C35.5194 40.1131 37.6548 42.8742 39.9991 42.8742C42.3435 42.8742 44.4789 40.1131 44.4789 37.0811C44.4789 34.3886 42.6371 32.5081 39.9991 32.5081Z" fill="#4E61FF"/>
<path d="M33.715 62.9341C33.7086 62.9341 33.7013 62.9341 33.6949 62.9337C33.2382 62.9224 32.8776 62.5437 32.8889 62.0875L33.1463 51.7388C33.1584 51.2834 33.5182 50.9167 33.9925 50.9337C34.4491 50.945 34.8097 51.3237 34.7985 51.7799L34.5411 62.1286C34.5298 62.5775 34.1619 62.9341 33.715 62.9341Z" fill="#4E61FF"/>
<path d="M46.2839 62.9344C45.837 62.9344 45.4691 62.5778 45.4578 62.1289L45.2005 51.7806C45.1892 51.3244 45.5498 50.9456 46.0064 50.9343C46.446 50.923 46.8413 51.2841 46.8526 51.7395L47.11 62.0877C47.1213 62.5439 46.7607 62.9227 46.3041 62.934C46.2976 62.9344 46.2903 62.9344 46.2839 62.9344Z" fill="#4E61FF"/>
<path d="M17.7468 71.7217H12.9307C10.8832 71.7217 9.20765 70.1828 9.03501 68.1422L8.28072 56.6557H7.60711C6.63097 56.6557 5.7234 56.2648 5.05221 55.5557C4.38101 54.8462 4.04138 53.9184 4.09543 52.9431L4.59237 43.9598C4.81745 39.877 8.19763 36.6787 12.2869 36.6787H18.3906C22.4799 36.6787 25.8601 39.8774 26.086 43.9598L26.5829 52.9431C26.637 53.918 26.2973 54.8458 25.6261 55.5553C24.9549 56.2648 24.0474 56.6557 23.0704 56.6557H22.3968L21.6449 68.1265C21.4707 70.1828 19.7951 71.7217 17.7468 71.7217ZM12.2869 38.3309C9.07454 38.3309 6.4188 40.8434 6.24132 44.051L5.74438 53.0343C5.71614 53.5518 5.89604 54.0439 6.25261 54.4202C6.60838 54.7962 7.08919 55.0035 7.60711 55.0035H9.05437C9.49 55.0035 9.8498 55.3411 9.87885 55.7755L10.6823 68.0184C10.7808 69.1809 11.748 70.0695 12.9307 70.0695H17.7468C18.9101 70.0695 19.8992 69.1615 19.9976 68.0027L20.7987 55.7755C20.8269 55.3411 21.1875 55.0035 21.6232 55.0035H23.0704C23.5883 55.0035 24.07 54.7962 24.4257 54.4198C24.7823 54.0435 24.9622 53.5514 24.934 53.0343L24.437 44.051C24.2595 40.8434 21.6038 38.3309 18.3906 38.3309H12.2869Z" fill="#4E61FF"/>
<path d="M15.3388 71.722C14.8822 71.722 14.5127 71.3521 14.5127 70.8959V56.2792C14.5127 55.823 14.8822 55.4531 15.3388 55.4531C15.7954 55.4531 16.1649 55.823 16.1649 56.2792V70.8959C16.1649 71.3521 15.7954 71.722 15.3388 71.722Z" fill="#4E61FF"/>
<path d="M15.339 38.248C12.0725 38.248 9.20703 34.769 9.20703 30.8027C9.20703 27.1959 11.7861 24.5776 15.339 24.5776C18.8918 24.5776 21.4709 27.1959 21.4709 30.8027C21.4709 34.769 18.6054 38.248 15.339 38.248ZM15.339 26.2298C12.701 26.2298 10.8592 28.1103 10.8592 30.8027C10.8592 33.8348 12.9946 36.5958 15.339 36.5958C17.6833 36.5958 19.8187 33.8348 19.8187 30.8027C19.8187 28.1103 17.9769 26.2298 15.339 26.2298Z" fill="#4E61FF"/>
<path d="M9.05388 56.6556C9.04743 56.6556 9.04017 56.6556 9.03291 56.6552C8.57711 56.6439 8.2165 56.2652 8.2278 55.809L8.48595 45.4603C8.49724 45.0114 8.86511 44.6548 9.31204 44.6548C9.31849 44.6548 9.32575 44.6548 9.33301 44.6552C9.78881 44.6665 10.1494 45.0452 10.1381 45.5014L9.87997 55.8501C9.86868 56.2991 9.50081 56.6556 9.05388 56.6556Z" fill="#4E61FF"/>
<path d="M21.6236 56.6556C21.1766 56.6556 20.8088 56.2991 20.7975 55.8501L20.5393 45.5014C20.528 45.0452 20.8886 44.6665 21.3444 44.6552C21.3517 44.6548 21.359 44.6548 21.3654 44.6548C21.8123 44.6548 22.1802 45.0114 22.1915 45.4603L22.4496 55.809C22.4609 56.2652 22.1003 56.6439 21.6445 56.6552C21.6373 56.6556 21.63 56.6556 21.6236 56.6556Z" fill="#4E61FF"/>
</svg>
