<svg width="80" height="80" viewBox="0 0 80 80" fill="none" xmlns="http://www.w3.org/2000/svg">
<path d="M32.8132 18.739C32.6059 18.739 32.3977 18.6612 32.2372 18.5051L25.2235 11.681C24.3442 10.8315 23.8594 9.68273 23.8594 8.44845C23.8594 7.26216 24.3152 6.14283 25.1429 5.29617C25.9811 4.43338 27.1081 3.94773 28.3133 3.93079C29.5548 3.91103 30.6601 4.36723 31.5241 5.20703L37.5229 11.0501C37.8504 11.3684 37.8568 11.8915 37.539 12.2183C37.2195 12.5462 36.6976 12.5518 36.3709 12.2336L30.3721 6.3913C29.8235 5.85927 29.1313 5.56764 28.3367 5.58256C27.5727 5.59345 26.8588 5.90122 26.3255 6.44939C25.8004 6.98747 25.5115 7.69658 25.5115 8.44845C25.5115 9.23097 25.8173 9.95742 26.3739 10.4947L33.3892 17.3208C33.7159 17.6391 33.7232 18.1618 33.4053 18.4889C33.2432 18.6555 33.0286 18.739 32.8132 18.739Z" fill="#4E61FF"/>
<path d="M42.9628 18.7392C42.7482 18.7392 42.5328 18.6557 42.3707 18.4895C42.0528 18.1628 42.0593 17.6396 42.386 17.3214L49.3916 10.4973C49.9563 9.9576 50.2645 9.23195 50.2645 8.44862C50.2645 7.69595 49.9741 6.98764 49.4473 6.4548C48.3453 5.32055 46.5294 5.29635 45.3943 6.39349L39.3963 12.2338C39.0688 12.5516 38.5468 12.5448 38.2282 12.2184C37.9103 11.8913 37.9168 11.3686 38.2443 11.0503L44.2439 5.20801C46.0348 3.47638 48.8971 3.51752 50.6267 5.29836C51.4568 6.13736 51.9167 7.2583 51.9167 8.44862C51.9167 9.68735 51.4278 10.8369 50.5396 11.686L43.5396 18.5048C43.3783 18.6613 43.171 18.7392 42.9628 18.7392Z" fill="#4E61FF"/>
<path d="M11.4755 48.4506C11.0189 48.4506 10.6494 48.0807 10.6494 47.6245V23.5688C10.6494 19.993 13.5544 17.084 17.1258 17.084H58.6366C62.2128 17.084 65.1218 19.993 65.1218 23.5688V45.1051C65.1218 45.5613 64.7524 45.9312 64.2958 45.9312C63.8391 45.9312 63.4697 45.5613 63.4697 45.1051V23.5688C63.4697 20.9042 61.3012 18.7362 58.6366 18.7362H17.1258C14.466 18.7362 12.3016 20.9042 12.3016 23.5688V47.6245C12.3016 48.0807 11.9321 48.4506 11.4755 48.4506Z" fill="#4E61FF"/>
<path d="M33.7548 47.3606C33.2982 47.3606 32.9287 46.9907 32.9287 46.5345V39.769C32.9287 39.3128 33.2982 38.9429 33.7548 38.9429C34.2114 38.9429 34.5809 39.3128 34.5809 39.769V46.5345C34.5809 46.9907 34.2114 47.3606 33.7548 47.3606Z" fill="#4E61FF"/>
<path d="M42.0165 49.2524C41.5599 49.2524 41.1904 48.8825 41.1904 48.4263V39.769C41.1904 39.3128 41.5599 38.9429 42.0165 38.9429C42.4731 38.9429 42.8426 39.3128 42.8426 39.769V48.4263C42.8426 48.8825 42.4731 49.2524 42.0165 49.2524Z" fill="#4E61FF"/>
<path d="M42.0139 32.338C41.5573 32.338 41.1878 31.9682 41.1878 31.5119V18.7391H34.5799V31.5119C34.5799 31.9682 34.2104 32.338 33.7538 32.338C33.2972 32.338 32.9277 31.9682 32.9277 31.5119V17.913C32.9277 17.4568 33.2972 17.0869 33.7538 17.0869H42.0139C42.4705 17.0869 42.84 17.4568 42.84 17.913V31.5119C42.84 31.9682 42.4705 32.338 42.0139 32.338Z" fill="#4E61FF"/>
<path d="M11.4775 31.5112H64.2943V39.7728H11.4775V31.5112Z" fill="#4E61FF"/>
<path d="M2.90828 76.1795C2.56139 76.1795 2.2387 75.9593 2.12414 75.6124C1.98055 75.1792 2.21611 74.7121 2.64932 74.5689L16.0748 70.1295C16.1741 70.096 16.2797 70.0815 16.387 70.0892L40.5121 71.6377L64.6001 62.6257L75.7724 51.7475C76.1435 51.3869 76.3476 50.9028 76.3476 50.3833C76.3476 49.8242 76.104 49.3007 75.6796 48.9473C73.0271 46.7272 69.2291 46.6058 66.4394 48.6484L59.6589 53.6473C59.6016 53.6893 59.5403 53.7239 59.4742 53.7498L56.7426 54.8392C56.3223 55.007 55.8391 54.8025 55.6697 54.3782C55.5002 53.9543 55.7068 53.4739 56.1311 53.3049L58.7634 52.2545L65.4609 47.3173C68.8669 44.8217 73.5031 44.9706 76.7381 47.6792C77.5391 48.3459 77.9998 49.3321 77.9998 50.3833C77.9998 51.3534 77.6174 52.2585 76.9236 52.9317L65.6279 63.9302C65.5464 64.0101 65.4488 64.0722 65.3415 64.1121L40.9252 73.2471C40.8154 73.2882 40.6977 73.3044 40.5823 73.2979L16.4411 71.7482L3.16724 76.1372C3.08173 76.1658 2.99379 76.1795 2.90828 76.1795Z" fill="#4E61FF"/>
<path d="M39.4346 63.186C39.395 63.186 39.3547 63.1832 39.3152 63.1776L27.5096 61.4532C27.0578 61.3874 26.7456 60.9679 26.8117 60.5166C26.8771 60.0652 27.2934 59.7558 27.7483 59.8184L39.3934 61.5189L55.1399 57.6124C55.6215 57.493 56.0079 57.1626 56.1999 56.706C56.3983 56.2329 56.3612 55.7049 56.0974 55.2571C54.3089 52.2206 50.8005 50.733 47.363 51.5535L43.1479 52.5586C42.0128 52.8321 36.5271 51.708 34.2199 51.213C34.161 51.2005 34.1029 51.1812 34.0481 51.1558C24.9651 46.9737 17.6522 47.8321 8.79921 54.1189C8.7387 54.162 8.67174 54.1967 8.60156 54.2221L3.10696 56.2095C2.6794 56.3636 2.20504 56.1429 2.04935 55.7137C1.89445 55.2846 2.1163 54.811 2.54548 54.6557L7.9344 52.7063C17.1504 46.192 25.1523 45.2671 34.6555 49.6169C38.0736 50.3466 42.1201 51.0565 42.7736 50.9496L46.979 49.9465C51.1288 48.955 55.3617 50.7528 57.5205 54.4181C58.0521 55.3201 58.1255 56.387 57.723 57.3457C57.3269 58.288 56.5306 58.9697 55.5384 59.2161L39.6338 63.1618C39.5685 63.178 39.5015 63.186 39.4346 63.186Z" fill="#4E61FF"/>
<path d="M42.0173 18.7361H33.7548C33.2982 18.7361 32.9287 18.3662 32.9287 17.91V15.5524C32.9287 12.8797 35.1028 10.7056 37.7755 10.7056H37.9966C40.6692 10.7056 42.8434 12.8797 42.8434 15.5524V17.91C42.8434 18.3662 42.4739 18.7361 42.0173 18.7361ZM34.5809 17.0839H41.1912V15.5524C41.1912 13.7909 39.7584 12.3577 37.9966 12.3577H37.7755C36.0136 12.3577 34.5809 13.7909 34.5809 15.5524V17.0839Z" fill="#4E61FF"/>
<path d="M59.663 10.4952C59.2064 10.4952 58.8369 10.1253 58.8369 9.66915V4.64689C58.8369 4.19068 59.2064 3.8208 59.663 3.8208C60.1196 3.8208 60.4891 4.19068 60.4891 4.64689V9.66915C60.4891 10.1253 60.1196 10.4952 59.663 10.4952Z" fill="#4E61FF"/>
<path d="M62.1741 7.98371H57.1523C56.6956 7.98371 56.3262 7.61383 56.3262 7.15763C56.3262 6.70143 56.6956 6.33154 57.1523 6.33154H62.1741C62.6307 6.33154 63.0002 6.70143 63.0002 7.15763C63.0002 7.61383 62.6307 7.98371 62.1741 7.98371Z" fill="#4E61FF"/>
<path d="M5.41984 45.6206C4.96323 45.6206 4.59375 45.2508 4.59375 44.7945V39.7719C4.59375 39.3157 4.96323 38.9458 5.41984 38.9458C5.87644 38.9458 6.24592 39.3157 6.24592 39.7719V44.7945C6.24592 45.2508 5.87644 45.6206 5.41984 45.6206Z" fill="#4E61FF"/>
<path d="M7.93078 43.1092H2.90812C2.45151 43.1092 2.08203 42.7393 2.08203 42.2831C2.08203 41.8269 2.45151 41.457 2.90812 41.457H7.93078C8.38739 41.457 8.75687 41.8269 8.75687 42.2831C8.75687 42.7393 8.38739 43.1092 7.93078 43.1092Z" fill="#4E61FF"/>
<path d="M16.2948 15.8096C15.8382 15.8096 15.4688 15.4397 15.4688 14.9835V9.96085C15.4688 9.50465 15.8382 9.13477 16.2948 9.13477C16.7514 9.13477 17.1209 9.50465 17.1209 9.96085V14.9835C17.1209 15.4397 16.7514 15.8096 16.2948 15.8096Z" fill="#4E61FF"/>
<path d="M18.806 13.2982H13.7841C13.3275 13.2982 12.958 12.9283 12.958 12.4721C12.958 12.0159 13.3275 11.646 13.7841 11.646H18.806C19.2626 11.646 19.632 12.0159 19.632 12.4721C19.632 12.9283 19.2626 13.2982 18.806 13.2982Z" fill="#4E61FF"/>
<path d="M70.4931 36.0665C70.0365 36.0665 69.667 35.6966 69.667 35.2404V30.2182C69.667 29.762 70.0365 29.3921 70.4931 29.3921C70.9497 29.3921 71.3192 29.762 71.3192 30.2182V35.2404C71.3192 35.6966 70.9497 36.0665 70.4931 36.0665Z" fill="#4E61FF"/>
<path d="M73.005 33.555H67.9823C67.5257 33.555 67.1562 33.1851 67.1562 32.7289C67.1562 32.2727 67.5257 31.9028 67.9823 31.9028H73.005C73.4616 31.9028 73.8311 32.2727 73.8311 32.7289C73.8311 33.1851 73.4616 33.555 73.005 33.555Z" fill="#4E61FF"/>
</svg>
