<svg width="36" height="37" viewBox="0 0 36 37" fill="none" xmlns="http://www.w3.org/2000/svg">
<rect y="0.5" width="36" height="36" rx="18" fill="url(#paint0_linear_47256_24201)"/>
<path d="M18.1743 7.8541C13.7506 7.8541 9.54992 7.4609 7.94541 11.5755C7.28265 13.2749 7.3789 15.482 7.3789 18.6422C7.3789 21.4153 7.28996 24.0216 7.94541 25.7076C9.54626 29.8247 13.7811 29.4302 18.1719 29.4302C22.4079 29.4302 26.7755 29.8709 28.3995 25.7076C29.0635 23.9912 28.966 21.817 28.966 18.6422C28.966 14.4277 29.1987 11.707 27.1532 9.66428C25.0821 7.59481 22.2812 7.8541 18.1694 7.8541H18.1743ZM17.207 9.79819C26.4344 9.78358 27.6088 8.75859 26.9607 22.9978C26.7304 28.0339 22.8928 27.4813 18.1755 27.4813C9.57428 27.4813 9.32697 27.2354 9.32697 18.6373C9.32697 9.9394 10.0092 9.80306 17.207 9.79576V9.79819ZM23.9369 11.5889C23.2217 11.5889 22.6418 12.1684 22.6418 12.8829C22.6418 13.5975 23.2217 14.177 23.9369 14.177C24.652 14.177 25.2319 13.5975 25.2319 12.8829C25.2319 12.1684 24.652 11.5889 23.9369 11.5889ZM18.1743 13.1021C15.1127 13.1021 12.631 15.583 12.631 18.6422C12.631 21.7013 15.1127 24.1811 18.1743 24.1811C21.2359 24.1811 23.7164 21.7013 23.7164 18.6422C23.7164 15.583 21.2359 13.1021 18.1743 13.1021ZM18.1743 15.0461C22.9318 15.0461 22.9379 22.2382 18.1743 22.2382C13.418 22.2382 13.4107 15.0461 18.1743 15.0461Z" fill="white"/>
<defs>
<linearGradient id="paint0_linear_47256_24201" x1="2.4171" y1="34.1546" x2="35.7736" y2="5.27931" gradientUnits="userSpaceOnUse">
<stop stop-color="#FFDD55"/>
<stop offset="0.46875" stop-color="#FF5D3F"/>
<stop offset="0.5" stop-color="#FF543E"/>
<stop offset="1" stop-color="#C837AB"/>
</linearGradient>
</defs>
</svg>
