<svg width="32" height="33" viewBox="0 0 32 33" fill="none" xmlns="http://www.w3.org/2000/svg">
<path d="M23.5159 29.0079H3.09141C1.82776 29.0079 0.799805 27.9814 0.799805 26.7196V15.7825C0.799805 14.5189 1.82776 13.4909 3.09141 13.4909H20.7853C20.9698 13.4909 21.1194 13.6405 21.1194 13.825C21.1194 14.0094 20.9698 14.159 20.7853 14.159H3.09141C2.19623 14.159 1.46792 14.8873 1.46792 15.7825V26.7196C1.46792 27.6129 2.19623 28.3398 3.09141 28.3398H23.5159C24.4111 28.3398 25.1394 27.6129 25.1394 26.7196V19.1368C25.1394 18.9523 25.289 18.8028 25.4734 18.8028C25.6579 18.8028 25.8075 18.9523 25.8075 19.1368V26.7196C25.8075 27.9814 24.7795 29.0079 23.5159 29.0079Z" fill="white"/>
<path d="M13.3053 22.8832C12.249 22.8832 11.1925 22.5301 10.3298 21.8235L1.55352 14.604C1.41095 14.4867 1.39057 14.2761 1.50768 14.1337C1.6248 13.9913 1.83554 13.9708 1.97794 14.0879L10.7537 21.307C12.2328 22.519 14.3785 22.5188 15.855 21.3069L19.0817 18.6546C19.224 18.5377 19.4345 18.5579 19.5518 18.7006C19.6689 18.843 19.6484 19.0536 19.5058 19.1707L16.2789 21.8231C15.418 22.5299 14.3617 22.8832 13.3053 22.8832Z" fill="white"/>
<path d="M1.5498 27.8871L9.94077 20.9853L10.365 21.5011L1.97409 28.403L1.5498 27.8871Z" fill="white"/>
<path d="M16.2236 21.5098L16.6479 20.9939L25.0389 27.8958L24.6146 28.4117L16.2236 21.5098Z" fill="white"/>
<path d="M24.8419 6.02432C24.6574 6.02432 24.5078 5.87474 24.5078 5.69026V4.32613C24.5078 4.14164 24.6574 3.99207 24.8419 3.99207C25.0264 3.99207 25.1759 4.14164 25.1759 4.32613V5.69026C25.1759 5.87474 25.0264 6.02432 24.8419 6.02432Z" fill="#4E61FF"/>
<path d="M21.3756 6.93583C21.2589 6.93583 21.1459 6.87483 21.0844 6.76603L20.4134 5.57839C20.3227 5.41788 20.3793 5.21399 20.5399 5.1233C20.7008 5.03277 20.9045 5.08953 20.995 5.24987L21.6661 6.43752C21.7568 6.59802 21.7002 6.80191 21.5395 6.89261C21.4876 6.92197 21.4312 6.93583 21.3756 6.93583Z" fill="#4E61FF"/>
<path d="M18.8059 9.4344C18.7472 9.4344 18.6878 9.4189 18.6338 9.38644L17.4654 8.6826C17.3074 8.58751 17.2565 8.38214 17.3517 8.22408C17.4467 8.0657 17.6519 8.0153 17.8102 8.11039L18.9786 8.81424C19.1367 8.90933 19.1876 9.11469 19.0923 9.27275C19.0297 9.37682 18.9191 9.4344 18.8059 9.4344Z" fill="#4E61FF"/>
<path d="M30.8719 15.8961L26.9366 9.08458C26.0079 7.46774 23.6762 7.46774 22.7408 9.08458L18.8123 15.8961C17.8802 17.5096 19.0461 19.5306 20.9102 19.5306H28.7739C30.638 19.5306 31.8039 17.5096 30.8719 15.8961ZM24.8421 18.2144C24.371 18.2144 23.9902 17.8336 23.9902 17.3659C23.9902 16.8949 24.371 16.5141 24.8421 16.5141C25.3097 16.5141 25.6906 16.8949 25.6906 17.3659C25.6906 17.8336 25.3097 18.2144 24.8421 18.2144ZM25.7941 11.4831L25.6371 14.4128C25.6137 14.8371 25.263 15.1678 24.8421 15.1678C24.4178 15.1678 24.0704 14.8371 24.047 14.4128L23.89 11.4831C23.8599 10.9353 24.2942 10.4743 24.8421 10.4743C25.3732 10.4743 25.7941 10.9052 25.7941 11.4297V11.4831Z" fill="#4E61FF"/>
</svg>
