<svg width="81" height="80" viewBox="0 0 81 80" fill="none" xmlns="http://www.w3.org/2000/svg">
<path d="M50.1714 69.4083C49.8442 69.4083 49.5344 69.2127 49.4046 68.8904C48.904 67.6468 47.846 66.7094 46.575 66.3831C42.4925 65.3331 40.226 63.4034 37.233 59.9813C34.1683 56.4772 33.0832 52.6021 34.3304 49.6156C35.0718 47.8404 36.5425 46.7182 38.2644 46.6129C38.7307 46.5847 39.1119 46.932 39.1393 47.387C39.1672 47.8424 38.8207 48.2341 38.3653 48.2619C37.2863 48.328 36.348 49.0718 35.8551 50.2521C34.8564 52.644 35.8362 55.8746 38.477 58.8938C41.3058 62.1288 43.3008 63.835 46.9864 64.7829C48.764 65.2395 50.2411 66.5444 50.9374 68.2732C51.1076 68.6964 50.9027 69.1776 50.4795 69.3482C50.3783 69.3889 50.2738 69.4083 50.1714 69.4083Z" fill="#4E61FF"/>
<path d="M71.4849 69.5L52.6871 77.0708C51.9578 77.3645 51.1285 77.0114 50.8348 76.2821L48.6054 70.7468C48.3117 70.0175 48.6648 69.1882 49.3941 68.8945L68.1918 61.3237C68.9211 61.0299 69.7505 61.383 70.0442 62.1123L72.2735 67.6476C72.5673 68.3769 72.2142 69.2063 71.4849 69.5Z" fill="#4E61FF"/>
<path d="M52.1578 78.0002C51.2663 78.0002 50.4209 77.4669 50.0679 76.5908L47.8385 71.0555C47.3755 69.9047 47.9345 68.5917 49.0849 68.1282L67.8829 60.5575C68.4404 60.3332 69.0519 60.3393 69.6045 60.5744C70.1575 60.81 70.5855 61.2464 70.8102 61.8039L73.0396 67.3393C73.5026 68.4901 72.9436 69.803 71.7932 70.2665L52.9951 77.8376C52.7209 77.9482 52.4369 78.0002 52.1578 78.0002ZM68.7227 62.0467C68.6485 62.0467 68.5731 62.0608 68.5001 62.0903L49.7021 69.661C49.3967 69.7841 49.2483 70.1326 49.3713 70.4383L51.6007 75.9737C51.7237 76.279 52.0718 76.4283 52.378 76.3048L71.176 68.7337C71.4814 68.6107 71.6298 68.2622 71.5068 67.9564L69.2774 62.421C69.1838 62.1883 68.9591 62.0467 68.7227 62.0467Z" fill="#4E61FF"/>
<path d="M66.6388 62.7756C66.3117 62.7756 66.0019 62.5795 65.8721 62.2577L65.3622 60.9915C64.8648 59.756 64.864 58.3946 65.3598 57.1587C66.6348 53.979 66.4646 50.41 64.8923 47.3666L59.1952 34.6723C58.7995 33.7894 57.8326 33.3251 56.8952 33.5691C56.0771 33.7817 55.4854 34.4912 55.4221 35.3339L55.2999 36.9675C55.2732 37.3228 55.0219 37.6209 54.6759 37.7073C54.3318 37.7944 53.9683 37.6484 53.778 37.3471L52.6925 35.6287C52.2351 34.9043 51.3267 34.6102 50.5321 34.9313C49.8524 35.2052 49.4168 35.8558 49.4224 36.5887L49.4313 37.7899C49.4337 38.1421 49.2127 38.4575 48.8807 38.5749C48.5479 38.6923 48.178 38.5862 47.959 38.3103L46.6077 36.6125C46.1152 35.995 45.2936 35.7776 44.5595 36.0732L44.3634 36.1519C43.764 36.3931 43.3437 36.9421 43.2667 37.5838L43.0142 39.6841C42.9694 40.0585 42.6766 40.3549 42.3026 40.4042C41.9259 40.4526 41.5689 40.2436 41.4277 39.8939L35.8072 25.9383C35.3047 24.6907 33.8804 24.084 32.6328 24.5866C31.3852 25.0892 30.7785 26.5135 31.2811 27.7611L40.6803 51.0986C40.7545 51.2833 40.7598 51.4886 40.6948 51.677L39.8611 54.0895C39.7118 54.5207 39.2419 54.7482 38.8103 54.6006C38.3791 54.4513 38.1504 53.981 38.2992 53.5498L39.0322 51.4293L29.7483 28.3782C28.9057 26.2856 29.923 23.8968 32.0156 23.0538C34.1067 22.2104 36.4966 23.2285 37.34 25.3211L41.8493 36.5173C42.1921 35.6646 42.8706 34.972 43.7467 34.6191L43.9427 34.5404C45.3359 33.9773 46.9639 34.4077 47.9001 35.5835L47.9106 35.5964C48.2006 34.6126 48.9235 33.7982 49.9145 33.3985C51.3501 32.8205 52.9761 33.2779 53.9046 34.4824C54.2527 33.2658 55.22 32.2977 56.4789 31.9702C58.1976 31.5241 59.9753 32.3744 60.7029 33.9963L66.3803 46.6495C68.1531 50.0785 68.3471 54.148 66.8934 57.7739C66.5566 58.6125 66.5574 59.5362 66.895 60.3743L67.4048 61.6405C67.5751 62.0636 67.3702 62.5449 66.947 62.7155C66.8458 62.7562 66.7413 62.7756 66.6388 62.7756Z" fill="#4E61FF"/>
<path d="M36.8585 64.0807H12.4392C9.87945 64.0807 7.79688 62.0017 7.79688 59.4464V6.63426C7.79687 4.07894 9.87945 2 12.4392 2H38.5603C41.1205 2 43.203 4.07894 43.203 6.63426V31.1939C43.203 31.6501 42.8332 32.02 42.3769 32.02C41.9207 32.02 41.5509 31.6501 41.5509 31.1939V6.63426C41.5509 4.98974 40.2093 3.65218 38.5603 3.65218H12.4392C10.7902 3.65218 9.44906 4.98974 9.44906 6.63426V59.4464C9.44906 61.0909 10.7902 62.4285 12.4392 62.4285H36.8585C37.3147 62.4285 37.6846 62.7984 37.6846 63.2546C37.6846 63.7108 37.3147 64.0807 36.8585 64.0807Z" fill="#4E61FF"/>
<path d="M42.374 10.6869H8.62687C8.17067 10.6869 7.80078 10.317 7.80078 9.86076C7.80078 9.40455 8.17067 9.03467 8.62687 9.03467H42.374C42.8302 9.03467 43.2001 9.40455 43.2001 9.86076C43.2001 10.317 42.8302 10.6869 42.374 10.6869Z" fill="#4E61FF"/>
<path d="M31.522 54.911H8.62297C8.16676 54.911 7.79688 54.5411 7.79688 54.0849C7.79688 53.6287 8.16676 53.2588 8.62297 53.2588H31.522C31.9782 53.2588 32.3481 53.6287 32.3481 54.0849C32.3481 54.5411 31.9782 54.911 31.522 54.911Z" fill="#4E61FF"/>
<path d="M29.3997 7.16976H21.6015C21.1453 7.16976 20.7754 6.79988 20.7754 6.34367C20.7754 5.88746 21.1453 5.51758 21.6015 5.51758H29.3997C29.8559 5.51758 30.2258 5.88746 30.2258 6.34367C30.2258 6.79988 29.8559 7.16976 29.3997 7.16976Z" fill="#4E61FF"/>
<path d="M34.8347 7.16976H33.9755C33.5193 7.16976 33.1494 6.79988 33.1494 6.34367C33.1494 5.88746 33.5193 5.51758 33.9755 5.51758H34.8347C35.2909 5.51758 35.6608 5.88746 35.6608 6.34367C35.6608 6.79988 35.2909 7.16976 34.8347 7.16976Z" fill="#4E61FF"/>
<path d="M28.9522 60.466H22.0494C21.3177 60.466 20.7246 59.8728 20.7246 59.1412V58.1959C20.7246 57.4642 21.3177 56.8711 22.0494 56.8711H28.9522C29.6839 56.8711 30.277 57.4642 30.277 58.1959V59.1412C30.277 59.8728 29.6839 60.466 28.9522 60.466Z" fill="#4E61FF"/>
</svg>
