<svg width="32" height="33" viewBox="0 0 32 33" fill="none" xmlns="http://www.w3.org/2000/svg">
<path d="M31.1996 9.65823V15.2773C31.1996 15.9989 30.6183 16.5802 29.8967 16.5802H28.851V19.6737L25.7576 16.5802H18.6218C17.9035 16.5802 17.3223 15.9989 17.3223 15.2773V12.8052H22.958C23.6763 12.8052 24.2609 12.2239 24.2609 11.5023V8.35535H29.8967C30.6183 8.35535 31.1996 8.93663 31.1996 9.65823Z" fill="white"/>
<path d="M12.7296 16.2328C12.6865 16.2328 12.6431 16.2245 12.6017 16.2073C12.4767 16.1556 12.3955 16.0338 12.3955 15.8987V13.1392H11.684C10.7812 13.1392 10.0469 12.4048 10.0469 11.5023V5.87987C10.0469 4.97912 10.7812 4.24622 11.684 4.24622H22.9588C23.8615 4.24622 24.5959 4.97912 24.5959 5.87987V11.5023C24.5959 12.4048 23.8615 13.1392 22.9588 13.1392H15.9613L12.9658 16.1349C12.9018 16.1989 12.8163 16.2328 12.7296 16.2328ZM11.684 4.91436C11.1496 4.91436 10.715 5.34744 10.715 5.87987V11.5023C10.715 12.0365 11.1496 12.4711 11.684 12.4711H12.7296C12.9142 12.4711 13.0636 12.6207 13.0636 12.8051V15.0923L15.5868 12.5689C15.6494 12.5063 15.7342 12.4711 15.823 12.4711H22.9588C23.4932 12.4711 23.9278 12.0365 23.9278 11.5023V5.87987C23.9278 5.34744 23.4932 4.91436 22.9588 4.91436H11.684Z" fill="#4E61FF"/>
<path d="M21.726 7.67485H16.7022C16.5176 7.67485 16.3682 7.52527 16.3682 7.34078C16.3682 7.1563 16.5176 7.00671 16.7022 7.00671H21.726C21.9107 7.00671 22.0601 7.1563 22.0601 7.34078C22.0601 7.52527 21.9107 7.67485 21.726 7.67485Z" fill="#4E61FF"/>
<path d="M14.6771 7.67504H12.9171C12.7324 7.67504 12.583 7.52546 12.583 7.34097C12.583 7.15648 12.7324 7.0069 12.9171 7.0069H14.6771C14.8618 7.0069 15.0112 7.15648 15.0112 7.34097C15.0112 7.52546 14.8618 7.67504 14.6771 7.67504Z" fill="#4E61FF"/>
<path d="M17.9405 10.3794H12.9171C12.7324 10.3794 12.583 10.2298 12.583 10.0453C12.583 9.86082 12.7324 9.71124 12.9171 9.71124H17.9405C18.1252 9.71124 18.2746 9.86082 18.2746 10.0453C18.2746 10.2298 18.1252 10.3794 17.9405 10.3794Z" fill="#4E61FF"/>
<path d="M21.725 10.3794H19.9649C19.7803 10.3794 19.6309 10.2298 19.6309 10.0453C19.6309 9.86082 19.7803 9.71124 19.9649 9.71124H21.725C21.9097 9.71124 22.0591 9.86082 22.0591 10.0453C22.0591 10.2298 21.9097 10.3794 21.725 10.3794Z" fill="#4E61FF"/>
<path d="M17.4142 28.7538C17.2967 28.7538 17.178 28.7454 17.0586 28.7283C12.6546 28.0983 8.96714 26.3241 6.09818 23.4553C3.22954 20.5868 1.45544 16.8991 0.825143 12.4951C0.666264 11.3837 1.26785 10.3115 2.25604 9.94549C3.02009 9.66231 3.87419 9.4514 4.86694 9.30067C5.3501 9.22727 5.85056 9.41681 6.17452 9.79509C7.39335 11.2168 8.11206 12.6774 8.43667 14.3913C8.52247 14.8446 8.38969 15.3074 8.08172 15.6296C7.86771 15.8535 7.67849 16.0372 7.49351 16.2165C7.15161 16.548 6.82863 16.8611 6.3882 17.3973C6.28772 17.52 6.28544 17.7152 6.38266 17.8828C7.01687 18.9753 7.79006 19.981 8.68135 20.8723C9.57949 21.7706 10.5853 22.5443 11.671 23.1721C11.8377 23.2688 12.0325 23.2659 12.1558 23.1657C12.6928 22.7248 13.006 22.4014 13.3381 22.059C13.5169 21.8745 13.7002 21.6854 13.9237 21.4717C14.246 21.1636 14.7077 21.0302 15.1625 21.117C16.8759 21.4416 18.3365 22.1604 19.7585 23.3793C20.1363 23.7031 20.3259 24.2038 20.2531 24.6864C20.1024 25.6788 19.8913 26.5329 19.6081 27.2974C19.2816 28.1796 18.3919 28.7538 17.4142 28.7538ZM5.07541 9.95315C5.0392 9.95315 5.00298 9.95593 4.9671 9.96131C4.02002 10.105 3.20899 10.3048 2.48832 10.5719C1.7931 10.8294 1.37192 11.5984 1.48676 12.4004C2.09618 16.6584 3.80666 20.2188 6.57057 22.9829C9.33514 25.7473 12.8954 27.4578 17.1532 28.067C17.9554 28.1815 18.7244 27.7607 18.9818 27.0653C19.2489 26.344 19.4486 25.533 19.5925 24.5864C19.631 24.3299 19.5282 24.0618 19.324 23.8866C17.9939 22.747 16.6322 22.0754 15.0378 21.7734C14.7974 21.728 14.5521 21.7955 14.3857 21.9546C14.1691 22.1617 13.9912 22.3451 13.8177 22.524C13.4722 22.8804 13.146 23.2171 12.5796 23.6822C12.2426 23.9583 11.7438 23.9859 11.3363 23.7505C10.2003 23.0935 9.1482 22.2841 8.20895 21.3447C7.27688 20.4126 6.46813 19.3606 5.80488 18.2183C5.56836 17.811 5.59544 17.3107 5.87176 16.9735C6.33633 16.4078 6.67236 16.0819 7.02829 15.7368C7.20772 15.563 7.39139 15.3851 7.59888 15.168C7.75809 15.0012 7.82595 14.7574 7.78027 14.5156C7.47817 12.9213 6.80677 11.5594 5.66721 10.2298C5.51649 10.054 5.29693 9.95315 5.07541 9.95315Z" fill="white"/>
</svg>
